solid breakwater
 facet normal  0.000000e+00  0.000000e+00 -1.000000e+00
   outer loop
     vertex  7.395000e+00  0.000000e+00 -1.325000e+01
     vertex  7.990500e+00  7.500000e-01 -1.325000e+01
     vertex  7.990500e+00  0.000000e+00 -1.325000e+01
   endloop
 endfacet
 facet normal  0.000000e+00  0.000000e+00 -1.000000e+00
   outer loop
     vertex  7.395000e+00  0.000000e+00 -1.325000e+01
     vertex  7.395000e+00  7.500000e-01 -1.325000e+01
     vertex  7.990500e+00  7.500000e-01 -1.325000e+01
   endloop
 endfacet
 facet normal -8.818984e-01  0.000000e+00  4.714395e-01
   outer loop
     vertex  1.989600e+01  0.000000e+00  1.013500e+01
     vertex  7.395000e+00  7.500000e-01 -1.325000e+01
     vertex  7.395000e+00  0.000000e+00 -1.325000e+01
   endloop
 endfacet
 facet normal -8.818984e-01  0.000000e+00  4.714395e-01
   outer loop
     vertex  1.989600e+01  0.000000e+00  1.013500e+01
     vertex  1.989600e+01  7.500000e-01  1.013500e+01
     vertex  7.395000e+00  7.500000e-01 -1.325000e+01
   endloop
 endfacet
 facet normal  4.921676e-01  0.000000e+00  8.705005e-01
   outer loop
     vertex  2.041600e+01  0.000000e+00  9.841000e+00
     vertex  1.989600e+01  7.500000e-01  1.013500e+01
     vertex  1.989600e+01  0.000000e+00  1.013500e+01
   endloop
 endfacet
 facet normal  4.921676e-01 -0.000000e+00  8.705005e-01
   outer loop
     vertex  2.041600e+01  0.000000e+00  9.841000e+00
     vertex  2.041600e+01  7.500000e-01  9.841000e+00
     vertex  1.989600e+01  7.500000e-01  1.013500e+01
   endloop
 endfacet
 facet normal  8.806003e-01  0.000000e+00 -4.738599e-01
   outer loop
     vertex  7.990500e+00  7.500000e-01 -1.325000e+01
     vertex  2.041600e+01  7.500000e-01  9.841000e+00
     vertex  2.041600e+01  0.000000e+00  9.841000e+00
   endloop
 endfacet
 facet normal  8.806003e-01  0.000000e+00 -4.738599e-01
   outer loop
     vertex  7.990500e+00  0.000000e+00 -1.325000e+01
     vertex  7.990500e+00  7.500000e-01 -1.325000e+01
     vertex  2.041600e+01  0.000000e+00  9.841000e+00
   endloop
 endfacet
 facet normal  0.000000e+00 -1.000000e+00  0.000000e+00
   outer loop
     vertex  1.989600e+01  0.000000e+00  1.013500e+01
     vertex  7.395000e+00  0.000000e+00 -1.325000e+01
     vertex  7.990500e+00  0.000000e+00 -1.325000e+01
   endloop
 endfacet
 facet normal -0.000000e+00 -1.000000e+00  0.000000e+00
   outer loop
     vertex  2.041600e+01  0.000000e+00  9.841000e+00
     vertex  1.989600e+01  0.000000e+00  1.013500e+01
     vertex  7.990500e+00  0.000000e+00 -1.325000e+01
   endloop
 endfacet
 facet normal  0.000000e+00  1.000000e+00  0.000000e+00
   outer loop
     vertex  1.989600e+01  7.500000e-01  1.013500e+01
     vertex  7.990500e+00  7.500000e-01 -1.325000e+01
     vertex  7.395000e+00  7.500000e-01 -1.325000e+01
   endloop
 endfacet
 facet normal  0.000000e+00  1.000000e+00  0.000000e+00
   outer loop
     vertex  2.041600e+01  7.500000e-01  9.841000e+00
     vertex  7.990500e+00  7.500000e-01 -1.325000e+01
     vertex  1.989600e+01  7.500000e-01  1.013500e+01
   endloop
 endfacet
endsolid breakwater
